<?xml version="1.0" standalone="no"?>
<!DOCTYPE svg PUBLIC "-//W3C//DTD SVG 20010904//EN"
 "http://www.w3.org/TR/2001/REC-SVG-20010904/DTD/svg10.dtd">
<svg version="1.0" xmlns="http://www.w3.org/2000/svg"
 width="512.000000pt" height="512.000000pt" viewBox="0 0 512.000000 512.000000"
 preserveAspectRatio="xMidYMid meet">

<g transform="translate(0.000000,512.000000) scale(0.100000,-0.100000)"
fill="#000000" stroke="none">
<path d="M2410 4685 c-477 -66 -887 -309 -1030 -610 -101 -215 -48 -455 145
-650 120 -121 254 -199 455 -265 199 -66 336 -84 615 -84 263 0 366 11 586 65
388 94 690 283 866 540 108 158 201 380 257 617 45 188 27 218 -87 143 -108
-70 -185 -101 -250 -101 -75 0 -135 21 -374 131 -286 132 -471 189 -713 219
-112 13 -352 11 -470 -5z"/>
<path d="M1089 3762 c-103 -98 -149 -204 -149 -344 0 -100 66 -677 96 -846 l6
-33 24 34 c13 19 43 45 68 57 50 24 49 20 71 145 33 181 91 388 144 509 l21
48 -46 62 c-84 112 -148 260 -163 381 l-6 50 -66 -63z"/>
<path d="M4125 3500 c-16 -23 -65 -76 -111 -119 l-82 -77 29 -110 c28 -103 70
-366 84 -520 6 -67 8 -71 40 -88 18 -10 44 -34 58 -53 l25 -34 5 33 c38 213
45 664 14 873 -10 66 -22 124 -26 128 -4 4 -21 -11 -36 -33z"/>
<path d="M1208 2468 c-20 -20 -20 -28 -15 -506 4 -457 6 -492 26 -570 54 -213
179 -390 356 -508 86 -58 737 -402 801 -424 131 -45 279 -45 413 0 68 22 784
390 851 437 191 131 323 342 360 573 15 97 13 953 -2 968 -16 16 -65 15 -75 0
-4 -7 -26 -70 -49 -141 -41 -123 -42 -130 -37 -226 13 -236 -85 -428 -276
-541 -110 -65 -301 -120 -418 -120 -23 0 -79 -14 -125 -32 -112 -43 -174 -43
-283 2 -95 39 -153 38 -252 -4 -84 -35 -148 -34 -255 3 -61 21 -109 30 -183
34 -282 16 -525 152 -618 347 -58 123 -79 258 -56 371 10 50 9 60 -19 129 -16
41 -41 107 -56 146 -30 80 -53 97 -88 62z"/>
<path d="M2410 2156 c-20 -8 -58 -27 -85 -44 -274 -169 -498 -174 -675 -17
-90 80 -115 60 -108 -88 4 -89 9 -111 37 -169 81 -170 255 -262 496 -261 193
0 348 56 463 168 l64 63 57 -57 c113 -113 275 -173 471 -174 130 -1 207 16
303 64 158 80 248 242 234 418 -7 94 -41 107 -109 40 -89 -86 -199 -125 -328
-116 -101 7 -182 36 -325 115 -114 64 -123 67 -186 67 -51 0 -72 -4 -87 -19
-21 -18 -22 -18 -65 3 -49 24 -105 26 -157 7z"/>
</g>
</svg>
